<linearGradient xmlns="http://www.w3.org/2000/svg" id="SVGID_1_" gradientUnits="userSpaceOnUse" x1="-216.625" y1="-385.75" x2="-215.918" y2="-385.043">
    <stop offset="0" id="stop6" stop-color="#dedfe3"/>
    <stop offset=".174" id="stop8" stop-color="#d8d9dd"/>
    <stop offset=".352" id="stop10" stop-color="#c9cacd"/>
    <stop offset=".532" id="stop12" stop-color="#b4b5b8"/>
    <stop offset=".714" id="stop14" stop-color="#989a9c"/>
    <stop offset=".895" id="stop16" stop-color="#797c7e"/>
    <stop offset="1" id="stop18" stop-color="#656b6c"/>
  </linearGradient>
<svg xmlns="http://www.w3.org/2000/svg" viewBox="0 0 16 16" width="16" height="16"><path d="M8 16A8 8 0 1 1 8 0a8 8 0 0 1 0 16Zm2.33-11.5c-1.22 0-1.83.5-2.323 1.136C7.513 5 6.903 4.5 5.682 4.5c-1.028 0-2.169.784-2.169 2.5 0 1.499 1.493 3.433 3.246 4.517.52.321.89.479 1.248.484.357-.005.728-.163 1.247-.484C11.007 10.433 12.5 8.5 12.5 7c0-1.716-1.14-2.5-2.17-2.5Z"></path></svg>
